<?xml version="1.0" encoding="UTF-8"?>
<svg width="24px" height="24px" viewBox="0 0 24 24" version="1.1" xmlns="http://www.w3.org/2000/svg" xmlns:xlink="http://www.w3.org/1999/xlink">
    <!-- Generator: Sketch 40.1 (33804) - http://www.bohemiancoding.com/sketch -->
    <title>Light</title>
    <desc>Created with Sketch.</desc>
    <defs></defs>
    <g id="Logo" stroke="none" stroke-width="1" fill="none" fill-rule="evenodd">
        <g id="Light" transform="translate(-4.000000, -4.000000)">
            <g id="logo" transform="translate(4.000000, 4.000000)">
                <g id="Group">
                    <g id="Logo">
                        <path d="M0.455760956,0.911521912 C0.20405113,0.408102261 0.458850861,0 1.03009939,0 L2.96990061,0 C3.53880879,0 4.20828247,0.416564941 4.45576096,0.911521912 L15.544239,23.0884781 C15.7959489,23.5918977 15.5411491,24 14.9699006,24 L13.0300994,24 C12.4611912,24 11.7917175,23.5834351 11.544239,23.0884781 L0.455760956,0.911521912 Z" id="White-Bars" fill="#FFFFFF"></path>
                        <path d="M8.45576096,0.911521912 C8.20405113,0.408102261 8.45885086,0 9.03009939,0 L10.9699006,0 C11.5388088,0 12.2082825,0.416564941 12.455761,0.911521912 L23.544239,23.0884781 C23.7959489,23.5918977 23.5411491,24 22.9699006,24 L21.0300994,24 C20.4611912,24 19.7917175,23.5834351 19.544239,23.0884781 L8.45576096,0.911521912 Z" id="White-Bars" fill="#FFFFFF"></path>
                        <path d="M23.5411491,7.08229828 C23.7945655,7.58913094 23.5411491,8 22.9699006,8 L21.0300994,8 C20.4611912,8 19.7961402,7.59228039 19.5411491,7.08229828 L16.4588509,0.917701721 C16.2054345,0.410869056 16.4588509,0 17.0300994,0 L18.9699006,0 C19.5388088,0 20.2038598,0.407719612 20.4588509,0.917701721 L23.5411491,7.08229828 Z" id="Accent-Bar" fill="#FF186E"></path>
                    </g>
                </g>
            </g>
            <rect id="Rectangle-3" x="0" y="0" width="32" height="32"></rect>
        </g>
    </g>
</svg>